<svg width="128" height="128" viewBox="0 0 128 128" fill="none" xmlns="http://www.w3.org/2000/svg">
<rect width="128" height="128" rx="30" fill="#A5A7E6"/>
<path d="M48.2935 54.152L49.1575 55.496C48.5815 56.936 47.7175 58.28 46.7575 59.528L47.3335 55.976C47.7175 55.4 48.0055 54.824 48.2935 54.152ZM13.9255 46.28C13.9255 33.224 23.1415 24.584 34.8535 24.584C47.3335 24.584 56.1655 35.048 56.1655 50.696C56.1655 69.128 44.0695 86.408 15.9415 90.152L15.5575 88.616C31.7815 84.584 43.3015 75.464 46.7575 59.528C43.6855 63.272 38.9815 65.864 32.6455 65.864C20.9335 65.864 13.9255 56.744 13.9255 46.28ZM21.7975 43.112C21.7975 54.536 27.3655 60.968 36.5815 60.968C41.0935 60.968 44.9335 59.528 47.3335 55.976C47.6215 53.864 47.7175 51.752 47.7175 49.448C47.7175 36.008 42.1495 27.752 34.1815 27.752C27.9415 27.752 21.7975 32.456 21.7975 43.112ZM105.856 54.152L106.72 55.496C106.144 56.936 105.28 58.28 104.32 59.528L104.896 55.976C105.28 55.4 105.568 54.824 105.856 54.152ZM71.488 46.28C71.488 33.224 80.704 24.584 92.416 24.584C104.896 24.584 113.728 35.048 113.728 50.696C113.728 69.128 101.632 86.408 73.504 90.152L73.12 88.616C89.344 84.584 100.864 75.464 104.32 59.528C101.248 63.272 96.544 65.864 90.208 65.864C78.496 65.864 71.488 56.744 71.488 46.28ZM79.36 43.112C79.36 54.536 84.928 60.968 94.144 60.968C98.656 60.968 102.496 59.528 104.896 55.976C105.184 53.864 105.28 51.752 105.28 49.448C105.28 36.008 99.712 27.752 91.744 27.752C85.504 27.752 79.36 32.456 79.36 43.112Z" fill="white"/>
<path d="M37.1099 111.208V109.864H37.0299C36.4059 110.712 35.6059 111.192 34.7259 111.192C32.8699 111.192 31.5739 109.736 31.5739 107.656C31.5739 105.56 33.1099 103.624 35.3979 103.624C36.1819 103.624 36.7259 103.832 37.1099 104.136V101.752C37.1099 101.288 36.8699 101.016 36.3739 101.016C36.1979 101.016 36.0699 101.048 35.8619 101.112L35.7659 100.824L38.2299 99.832H38.4219V109.32C38.4219 109.8 38.6779 110.12 39.1259 110.12C39.2539 110.12 39.3979 110.088 39.6539 110.008L39.7659 110.312L37.2859 111.208H37.1099ZM35.3979 110.104C36.0539 110.104 36.5819 109.864 37.1099 109.192V105.688C36.9979 104.904 36.4219 104.2 35.3659 104.2C34.1019 104.2 32.9179 105.16 32.9179 107.128C32.9179 108.968 33.9259 110.104 35.3979 110.104ZM41.9516 111V110.664H42.1436C43.4556 110.664 44.3516 110.408 44.3516 109.16V105.688C44.3516 105.016 43.9676 104.664 43.2636 104.664C42.8476 104.664 42.4956 104.76 41.9676 104.856L41.9036 104.536L45.4716 103.672H45.6956V109.16C45.6956 110.408 46.5916 110.664 47.9036 110.664H48.0956V111H41.9516ZM44.9276 102.216C44.3516 102.216 43.8716 101.736 43.8716 101.16C43.8716 100.584 44.3516 100.104 44.9276 100.104C45.5036 100.104 45.9836 100.584 45.9836 101.16C45.9836 101.736 45.5036 102.216 44.9276 102.216ZM53.9134 114.696C52.5534 114.696 51.5934 114.328 51.0174 113.752C50.7774 113.512 50.6654 113.32 50.6654 113.032C50.6654 112.584 51.2894 111.992 52.2014 111.16C51.6894 111 51.3694 110.664 51.3694 110.152C51.3694 109.768 51.5774 109.48 52.6654 108.472C51.8174 108.04 51.3054 107.272 51.3054 106.344C51.3054 104.616 52.8894 103.64 54.2974 103.64C55.0654 103.64 55.7374 103.832 56.2494 104.168H58.5054V104.84H56.9374C57.1934 105.208 57.3374 105.656 57.3374 106.136C57.3374 107.864 55.7534 108.84 54.3454 108.84C53.8494 108.84 53.4014 108.76 53.0174 108.616C52.6814 108.984 52.4894 109.208 52.4894 109.464C52.4894 109.848 52.7454 110.072 53.7854 110.072H56.3134C57.4494 110.072 58.2334 110.824 58.2334 111.752C58.2334 113.544 56.4574 114.696 53.9134 114.696ZM54.4734 108.312C55.4654 108.312 55.9134 107.48 55.9134 106.472C55.9134 105.432 55.2574 104.168 54.1694 104.168C53.1774 104.168 52.7294 105 52.7294 106.008C52.7294 107.048 53.3854 108.312 54.4734 108.312ZM51.9454 112.424C51.9454 113.416 53.1614 113.768 54.3934 113.768C56.3774 113.768 57.7214 113.032 57.7214 112.04C57.7214 111.608 57.3054 111.336 56.6014 111.32L52.9214 111.272C52.8254 111.272 52.7294 111.272 52.6334 111.256C52.2494 111.64 51.9454 112.072 51.9454 112.424ZM61.1391 111V110.664H61.3311C62.6431 110.664 63.5391 110.408 63.5391 109.16V105.688C63.5391 105.016 63.1551 104.664 62.4511 104.664C62.0351 104.664 61.6831 104.76 61.1551 104.856L61.0911 104.536L64.6591 103.672H64.8831V109.16C64.8831 110.408 65.7791 110.664 67.0911 110.664H67.2831V111H61.1391ZM64.1151 102.216C63.5391 102.216 63.0591 101.736 63.0591 101.16C63.0591 100.584 63.5391 100.104 64.1151 100.104C64.6911 100.104 65.1711 100.584 65.1711 101.16C65.1711 101.736 64.6911 102.216 64.1151 102.216ZM74.5249 111.224C72.9889 111.224 72.1089 110.488 72.1089 108.92V104.424H70.0769V104.056C72.0769 103.736 72.6209 102.792 73.0849 101.56H73.4529V103.848H76.9089V104.424H73.4529V108.568C73.4529 109.64 73.9809 110.248 75.1169 110.248C75.8529 110.248 76.4929 109.896 77.0529 109.032L77.3089 109.16C76.7489 110.536 75.6449 111.224 74.5249 111.224ZM85.7506 111.176C85.0786 111.176 84.6466 110.664 84.6466 110.008V109.832C83.5906 110.792 82.9026 111.224 81.9586 111.224C80.8066 111.224 79.9586 110.456 79.9586 109.4C79.9586 108.12 80.7746 107.64 82.1026 107.128C82.8866 106.824 83.7346 106.568 84.6466 106.312V105.912C84.6466 104.6 83.9906 104.12 83.0146 104.12C82.3426 104.12 81.4786 104.376 81.6066 105.384C81.6866 106.008 81.3506 106.328 80.9186 106.328C80.5026 106.328 80.1666 106.04 80.1666 105.544C80.1666 104.616 81.3186 103.624 83.2066 103.624C85.2706 103.624 85.9586 104.696 85.9586 105.784V109.528C85.9586 109.976 86.1506 110.184 86.4706 110.184C86.7106 110.184 86.9346 110.072 87.3346 109.624V110.12C86.9026 110.648 86.4066 111.176 85.7506 111.176ZM81.2866 109.048C81.2866 109.736 81.7346 110.248 82.6466 110.248C83.3666 110.248 83.9266 109.944 84.6466 109.304V106.824C83.9586 107 83.3186 107.224 82.6626 107.48C81.7186 107.864 81.2866 108.328 81.2866 109.048ZM89.8084 111V110.664H90.0004C91.3124 110.664 92.2084 110.408 92.2084 109.16V101.848C92.2084 101.128 91.7604 100.872 91.1204 100.872C90.7044 100.872 90.3524 100.968 89.8084 101.08L89.7284 100.76L93.3124 99.832H93.5524V109.16C93.5524 110.408 94.4484 110.664 95.7604 110.664H95.9524V111H89.8084Z" fill="white"/>
</svg>
