<svg width="128" height="128" viewBox="0 0 128 128" fill="none" xmlns="http://www.w3.org/2000/svg">
<rect width="128" height="128" rx="30" fill="#A3A8E6"/>
<path d="M48.2935 60.152L49.1575 61.496C48.5815 62.936 47.7175 64.28 46.7575 65.528L47.3335 61.976C47.7175 61.4 48.0055 60.824 48.2935 60.152ZM13.9255 52.28C13.9255 39.224 23.1415 30.584 34.8535 30.584C47.3335 30.584 56.1655 41.048 56.1655 56.696C56.1655 75.128 44.0695 92.408 15.9415 96.152L15.5575 94.616C31.7815 90.584 43.3015 81.464 46.7575 65.528C43.6855 69.272 38.9815 71.864 32.6455 71.864C20.9335 71.864 13.9255 62.744 13.9255 52.28ZM21.7975 49.112C21.7975 60.536 27.3655 66.968 36.5815 66.968C41.0935 66.968 44.9335 65.528 47.3335 61.976C47.6215 59.864 47.7175 57.752 47.7175 55.448C47.7175 42.008 42.1495 33.752 34.1815 33.752C27.9415 33.752 21.7975 38.456 21.7975 49.112ZM105.856 60.152L106.72 61.496C106.144 62.936 105.28 64.28 104.32 65.528L104.896 61.976C105.28 61.4 105.568 60.824 105.856 60.152ZM71.488 52.28C71.488 39.224 80.704 30.584 92.416 30.584C104.896 30.584 113.728 41.048 113.728 56.696C113.728 75.128 101.632 92.408 73.504 96.152L73.12 94.616C89.344 90.584 100.864 81.464 104.32 65.528C101.248 69.272 96.544 71.864 90.208 71.864C78.496 71.864 71.488 62.744 71.488 52.28ZM79.36 49.112C79.36 60.536 84.928 66.968 94.144 66.968C98.656 66.968 102.496 65.528 104.896 61.976C105.184 59.864 105.28 57.752 105.28 55.448C105.28 42.008 99.712 33.752 91.744 33.752C85.504 33.752 79.36 38.456 79.36 49.112Z" fill="white"/>
</svg>
