<?xml version="1.0" standalone="no"?>
<!DOCTYPE svg PUBLIC "-//W3C//DTD SVG 20010904//EN"
 "http://www.w3.org/TR/2001/REC-SVG-20010904/DTD/svg10.dtd">
<svg version="1.0" xmlns="http://www.w3.org/2000/svg"
 width="128.000000pt" height="128.000000pt" viewBox="0 0 128.000000 128.000000"
 preserveAspectRatio="xMidYMid meet">
<metadata>
Created by potrace 1.16, written by Peter Selinger 2001-2019
</metadata>
<g transform="translate(0.000000,128.000000) scale(0.100000,-0.100000)"
fill="#000000" stroke="none">
<path d="M0 640 l0 -640 640 0 640 0 0 640 0 640 -640 0 -640 0 0 -640z m230
175 c0 -8 -4 -15 -10 -15 -5 0 -10 7 -10 15 0 8 5 15 10 15 6 0 10 -7 10 -15z
m722 0 c0 -5 -5 -11 -11 -13 -6 -2 -11 4 -11 13 0 9 5 15 11 13 6 -2 11 -8 11
-13z m-349 -36 c22 -2 22 -2 0 -6 -19 -4 -23 -11 -23 -40 0 -31 2 -35 21 -30
15 4 19 3 12 -4 -22 -22 -48 -5 -51 34 -2 20 -7 37 -13 37 -5 0 -1 8 9 18 12
13 18 14 20 5 2 -7 13 -14 25 -14z m-462 -46 c4 -35 2 -43 -11 -43 -12 0 -15
9 -12 41 4 36 2 40 -14 37 -15 -3 -19 -12 -19 -41 0 -26 -4 -37 -15 -37 -11 0
-15 12 -15 44 l0 45 40 -2 c39 -2 40 -3 46 -44z m89 8 c0 -22 5 -42 13 -44 6
-3 -4 -6 -23 -6 -24 0 -30 2 -21 8 9 6 12 21 9 45 -3 25 0 36 9 36 8 0 13 -14
13 -39z m151 -8 c4 -35 2 -43 -11 -43 -12 0 -15 9 -12 41 4 36 2 40 -14 37
-15 -3 -19 -12 -19 -41 0 -26 -4 -37 -15 -37 -12 0 -14 10 -12 44 4 44 4 44
40 42 36 -1 37 -3 43 -43z m117 25 c3 -14 -4 -18 -32 -18 -26 0 -34 -4 -30
-14 8 -21 34 -28 52 -14 13 11 14 10 10 -2 -6 -19 -58 -26 -69 -8 -13 19 -11
52 3 66 18 18 62 11 66 -10z m190 15 c-1 -5 2 -19 6 -32 8 -24 9 -24 22 -6 20
27 17 12 -8 -40 -14 -29 -29 -45 -40 -45 -10 0 -18 5 -18 10 0 6 9 10 19 10
29 0 31 23 6 69 -23 39 -23 41 -4 41 10 0 18 -3 17 -7z m62 3 c0 -3 -4 -8 -10
-11 -5 -3 -10 -1 -10 4 0 6 5 11 10 11 6 0 10 -2 10 -4z m111 -43 c4 -35 2
-43 -10 -43 -12 0 -16 10 -16 37 0 27 -4 38 -15 38 -11 0 -15 -11 -15 -38 0
-26 -4 -37 -15 -37 -12 0 -14 10 -12 44 4 44 4 44 40 42 36 -1 37 -3 43 -43z
m89 8 c0 -22 5 -42 13 -44 6 -3 1 -6 -13 -6 -23 -1 -25 2 -25 44 0 29 4 45 13
45 7 0 12 -14 12 -39z m151 -8 c4 -35 2 -43 -10 -43 -12 0 -16 10 -16 37 0 27
-4 38 -15 38 -11 0 -15 -11 -15 -38 0 -26 -4 -37 -15 -37 -12 0 -14 10 -12 44
4 44 4 44 40 42 36 -1 37 -3 43 -43z m117 25 c3 -14 -4 -18 -32 -18 -26 0 -34
-4 -30 -14 8 -21 34 -28 52 -14 13 11 14 10 10 -2 -6 -19 -58 -26 -69 -8 -13
19 -11 52 3 66 18 18 62 11 66 -10z m-896 -238 l3 -70 -37 0 c-26 0 -40 6 -47
18 -16 30 -2 62 30 69 22 4 29 11 29 29 0 13 4 24 9 24 5 0 11 -32 13 -70z
m84 43 c-10 -10 -19 5 -10 18 6 11 8 11 12 0 2 -7 1 -15 -2 -18z m244 12 c0
-8 -4 -15 -10 -15 -5 0 -10 7 -10 15 0 8 5 15 10 15 6 0 10 -7 10 -15z m360
-49 c0 -42 4 -66 13 -69 6 -3 -4 -5 -23 -5 -19 0 -29 2 -22 5 8 3 12 27 12 69
0 36 4 64 10 64 6 0 10 -28 10 -64z m-227 13 c21 -2 21 -2 -1 -6 -19 -4 -23
-10 -20 -36 2 -24 8 -32 22 -30 12 1 15 -2 8 -9 -21 -21 -47 -4 -50 35 -2 20
-7 37 -13 37 -5 0 -1 8 9 18 12 13 18 14 20 5 2 -7 13 -14 25 -14z m-373 -38
c0 -22 5 -42 13 -44 6 -3 1 -6 -13 -6 -23 -1 -25 2 -25 44 0 29 4 45 13 45 7
0 12 -14 12 -39z m153 19 c-3 -10 -11 -24 -18 -30 -11 -9 -12 -7 -8 9 3 14 0
23 -11 27 -24 9 -32 -4 -18 -26 7 -12 8 -20 2 -20 -25 0 -6 -19 22 -22 41 -4
46 -22 13 -44 -21 -14 -30 -15 -51 -5 -18 8 -23 15 -17 24 5 6 8 26 7 42 -3
55 4 65 46 65 33 0 37 -3 33 -20z m87 -19 c0 -29 5 -41 18 -44 9 -3 4 -5 -13
-6 -29 -1 -30 0 -30 44 0 29 4 45 13 45 7 0 12 -15 12 -39z m214 24 c-6 -16
-24 -21 -24 -7 0 11 11 22 21 22 5 0 6 -7 3 -15z m46 8 c0 -5 4 -25 9 -45 l9
-37 -42 2 c-52 2 -61 28 -16 47 32 13 38 25 18 33 -8 3 -6 6 5 6 9 1 17 -2 17
-6z"/>
<path d="M440 760 c0 -5 9 -10 20 -10 11 0 20 5 20 10 0 6 -9 10 -20 10 -11 0
-20 -4 -20 -10z"/>
<path d="M1160 760 c0 -5 9 -10 20 -10 11 0 20 5 20 10 0 6 -9 10 -20 10 -11
0 -20 -4 -20 -10z"/>
<path d="M253 514 c-8 -20 9 -49 28 -49 8 0 15 13 17 33 3 27 0 32 -18 32 -11
0 -23 -7 -27 -16z"/>
<path d="M497 444 c-16 -16 -5 -25 26 -22 17 2 31 8 30 13 -3 12 -46 19 -56 9z"/>
<path d="M873 493 c-7 -2 -13 -11 -13 -20 0 -20 34 -12 38 10 3 17 -3 20 -25
10z"/>
</g>
</svg>
